<svg xmlns="http://www.w3.org/2000/svg" width="400" height="400" viewBox="0 0 400 400"><defs><radialGradient id="bg14" cx="50%" cy="38%" r="78%"><stop offset="0%" stop-color="#E2EDF9"/><stop offset="70%" stop-color="#DDEAF8"/><stop offset="100%" stop-color="#BEC9D5"/></radialGradient><radialGradient id="sk14" gradientUnits="userSpaceOnUse" cx="180" cy="156" r="98"><stop offset="0%" stop-color="#ECC8A3"/><stop offset="52%" stop-color="#EAC197"/><stop offset="100%" stop-color="#AD8E6F"/></radialGradient><linearGradient id="hr14" gradientUnits="userSpaceOnUse" x1="200" y1="90" x2="200" y2="212"><stop offset="0%" stop-color="#3E3944"/><stop offset="55%" stop-color="#241f2b"/><stop offset="100%" stop-color="#19151E"/></linearGradient><linearGradient id="ct14" gradientUnits="userSpaceOnUse" x1="200" y1="276" x2="200" y2="400"><stop offset="0%" stop-color="#52565C"/><stop offset="100%" stop-color="#2A2D34"/></linearGradient><filter id="sf14" x="-40%" y="-40%" width="180%" height="180%"><feGaussianBlur stdDeviation="7"/></filter><filter id="hb14" x="-40%" y="-40%" width="180%" height="180%"><feGaussianBlur stdDeviation="4"/></filter><clipPath id="hc14"><ellipse cx="200" cy="182" rx="60" ry="70"/></clipPath><clipPath id="cc14"><circle cx="200" cy="200" r="200"/></clipPath></defs><g clip-path="url(#cc14)"><rect width="400" height="400" fill="url(#bg14)"/><ellipse cx="200" cy="168" rx="120" ry="120" fill="#E4EEF9" opacity="0.5" filter="url(#sf14)"/><ellipse cx="200" cy="300" rx="150" ry="60" fill="#9AA3AD" opacity="0.30" filter="url(#sf14)"/><path d="M52 400 L52 364 Q56 296 138 278 L262 278 Q344 296 348 364 L348 400 Z" fill="url(#ct14)"/><path d="M52 400 L52 364 Q56 320 116 300 L120 400 Z" fill="#24262C" opacity="0.55"/><path d="M348 400 L348 364 Q344 318 282 298 L280 400 Z" fill="#5B5E64" opacity="0.4"/><path d="M150 282 Q200 270 250 282 L250 300 Q200 286 150 300 Z" fill="#5B5E64" opacity="0.5"/><path d="M166 280 L200 374 L234 280 Z" fill="#FBFCFE"/><path d="M166 280 L200 374 L192 298 Z" fill="#E1E2E4" opacity="0.7"/><path d="M192 296 L208 296 L213 372 L200 390 L187 372 Z" fill="#3A6E8F"/><path d="M192 296 L208 296 L201 322 L195 322 Z" fill="#618BA5" opacity="0.7"/><path d="M200 296 L213 372 L200 390 Z" fill="#2D556F" opacity="0.6"/><path d="M166 280 L194 356 L182 292 Z" fill="#5B5E64"/><path d="M234 280 L206 356 L218 292 Z" fill="#24262C"/><rect x="178" y="226" width="44" height="66" rx="18" fill="#C9A581"/><ellipse cx="200" cy="234" rx="40" ry="20" fill="#AD8E6F" opacity="0.7" filter="url(#hb14)"/><ellipse cx="140" cy="190" rx="11" ry="13" fill="#C9A581"/><ellipse cx="260" cy="190" rx="11" ry="13" fill="#AD8E6F"/><ellipse cx="200" cy="182" rx="60" ry="70" fill="url(#sk14)"/><g clip-path="url(#hc14)"><path d="M222 112 L266 112 L266 252 L210 252 Q246 182 222 112 Z" fill="#AD8E6F" opacity="0.45" filter="url(#hb14)"/><ellipse cx="178" cy="164" rx="30" ry="34" fill="#ECC8A3" opacity="0.5" filter="url(#hb14)"/><ellipse cx="200" cy="188" rx="9" ry="20" fill="#ECC8A3" opacity="0.4" filter="url(#hb14)"/></g><path d="M166 168 Q178 164 189 167" stroke="#19161E" stroke-width="4" fill="none" stroke-linecap="round"/><path d="M211 167 Q222 164 234 168" stroke="#19161E" stroke-width="4" fill="none" stroke-linecap="round"/><path d="M185 187 Q178 181.5 171 184.5 Q178 190 185 187 Z" fill="#fff"/><circle cx="179" cy="187" r="4.4" fill="#2c2018"/><circle cx="179" cy="187" r="2.2" fill="#1a1a1f"/><circle cx="177.6" cy="185.4" r="1.3" fill="#fff"/><path d="M185 186.5 Q178 180.5 171 183" stroke="#695643" stroke-width="2.4" fill="none" stroke-linecap="round"/><path d="M215 187 Q222 181.5 229 184.5 Q222 190 215 187 Z" fill="#fff"/><circle cx="221" cy="187" r="4.4" fill="#2c2018"/><circle cx="221" cy="187" r="2.2" fill="#1a1a1f"/><circle cx="219.6" cy="185.4" r="1.3" fill="#fff"/><path d="M215 186.5 Q222 180.5 229 183" stroke="#695643" stroke-width="2.4" fill="none" stroke-linecap="round"/><path d="M197 186 Q207 202 194 206" stroke="#AD8E6F" stroke-width="2.6" fill="none" stroke-linecap="round"/><ellipse cx="202" cy="204" rx="8" ry="5" fill="#AD8E6F" opacity="0.4" filter="url(#hb14)"/><path d="M187 219 Q200 225 213 219" stroke="#8C735A" stroke-width="3" fill="none" stroke-linecap="round"/><path d="M142 180 Q140 116 174 114 Q190 94 214 100 Q264 104 264 178 Q254 126 216 124 Q196 128 174 122 Q146 124 142 180 Z" fill="url(#hr14)"/><path d="M180 108 Q202 96 222 108" stroke="#706D75" stroke-width="3.5" fill="none" stroke-linecap="round" opacity="0.45"/><path d="M258 148 Q266 182 254 222" stroke="#ECC8A3" stroke-width="3" fill="none" stroke-linecap="round" opacity="0.5" filter="url(#hb14)"/></g><circle cx="200" cy="200" r="197" fill="none" stroke="#ffffff" stroke-width="6"/><circle cx="200" cy="200" r="200" fill="none" stroke="#9AA3AD" stroke-width="1.5"/></svg>