<svg xmlns="http://www.w3.org/2000/svg" width="400" height="400" viewBox="0 0 400 400"><defs><radialGradient id="bg10" cx="50%" cy="38%" r="78%"><stop offset="0%" stop-color="#E8ECF3"/><stop offset="70%" stop-color="#E4E9F1"/><stop offset="100%" stop-color="#C4C8CF"/></radialGradient><radialGradient id="sk10" gradientUnits="userSpaceOnUse" cx="180" cy="156" r="98"><stop offset="0%" stop-color="#DFB791"/><stop offset="52%" stop-color="#DBAE82"/><stop offset="100%" stop-color="#A28060"/></radialGradient><linearGradient id="hr10" gradientUnits="userSpaceOnUse" x1="200" y1="90" x2="200" y2="212"><stop offset="0%" stop-color="#D4D4D9"/><stop offset="55%" stop-color="#cfcfd4"/><stop offset="100%" stop-color="#909094"/></linearGradient><linearGradient id="ct10" gradientUnits="userSpaceOnUse" x1="200" y1="276" x2="200" y2="400"><stop offset="0%" stop-color="#52565C"/><stop offset="100%" stop-color="#2A2D34"/></linearGradient><filter id="sf10" x="-40%" y="-40%" width="180%" height="180%"><feGaussianBlur stdDeviation="7"/></filter><filter id="hb10" x="-40%" y="-40%" width="180%" height="180%"><feGaussianBlur stdDeviation="4"/></filter><clipPath id="hc10"><ellipse cx="200" cy="182" rx="60" ry="70"/></clipPath><clipPath id="cc10"><circle cx="200" cy="200" r="200"/></clipPath></defs><g clip-path="url(#cc10)"><rect width="400" height="400" fill="url(#bg10)"/><ellipse cx="200" cy="168" rx="120" ry="120" fill="#E9EDF4" opacity="0.5" filter="url(#sf10)"/><ellipse cx="200" cy="300" rx="150" ry="60" fill="#9FA3A8" opacity="0.30" filter="url(#sf10)"/><path d="M52 400 L52 364 Q56 296 138 278 L262 278 Q344 296 348 364 L348 400 Z" fill="url(#ct10)"/><path d="M52 400 L52 364 Q56 320 116 300 L120 400 Z" fill="#24262C" opacity="0.55"/><path d="M348 400 L348 364 Q344 318 282 298 L280 400 Z" fill="#5B5E64" opacity="0.4"/><path d="M150 282 Q200 270 250 282 L250 300 Q200 286 150 300 Z" fill="#5B5E64" opacity="0.5"/><path d="M166 280 L200 374 L234 280 Z" fill="#FBFCFE"/><path d="M166 280 L200 374 L192 298 Z" fill="#E1E2E4" opacity="0.7"/><path d="M192 296 L208 296 L213 372 L200 390 L187 372 Z" fill="#682B38"/><path d="M192 296 L208 296 L201 322 L195 322 Z" fill="#86555F" opacity="0.7"/><path d="M200 296 L213 372 L200 390 Z" fill="#51212B" opacity="0.6"/><path d="M166 280 L194 356 L182 292 Z" fill="#5B5E64"/><path d="M234 280 L206 356 L218 292 Z" fill="#24262C"/><rect x="178" y="226" width="44" height="66" rx="18" fill="#BC956F"/><ellipse cx="200" cy="234" rx="40" ry="20" fill="#A28060" opacity="0.7" filter="url(#hb10)"/><ellipse cx="140" cy="190" rx="11" ry="13" fill="#BC956F"/><ellipse cx="260" cy="190" rx="11" ry="13" fill="#A28060"/><ellipse cx="200" cy="182" rx="60" ry="70" fill="url(#sk10)"/><g clip-path="url(#hc10)"><path d="M222 112 L266 112 L266 252 L210 252 Q246 182 222 112 Z" fill="#A28060" opacity="0.45" filter="url(#hb10)"/><ellipse cx="178" cy="164" rx="30" ry="34" fill="#DFB791" opacity="0.5" filter="url(#hb10)"/><ellipse cx="200" cy="188" rx="9" ry="20" fill="#DFB791" opacity="0.4" filter="url(#hb10)"/></g><path d="M167 167 Q178 160 189 167" stroke="#959598" stroke-width="4" fill="none" stroke-linecap="round"/><path d="M211 167 Q222 160 233 167" stroke="#959598" stroke-width="4" fill="none" stroke-linecap="round"/><path d="M169 185 Q178 178 187 185" stroke="#6D5741" stroke-width="2" fill="none" stroke-linecap="round"/><ellipse cx="178" cy="186" rx="4.8" ry="5.8" fill="#fff"/><circle cx="178" cy="187" r="4.2" fill="#5a6470"/><circle cx="178" cy="187" r="2.4" fill="#1a1a1f"/><circle cx="176.4" cy="184.6" r="1.5" fill="#fff"/><path d="M213 185 Q222 178 231 185" stroke="#6D5741" stroke-width="2" fill="none" stroke-linecap="round"/><ellipse cx="222" cy="186" rx="4.8" ry="5.8" fill="#fff"/><circle cx="222" cy="187" r="4.2" fill="#5a6470"/><circle cx="222" cy="187" r="2.4" fill="#1a1a1f"/><circle cx="220.4" cy="184.6" r="1.5" fill="#fff"/><path d="M197 186 Q207 202 194 206" stroke="#A28060" stroke-width="2.6" fill="none" stroke-linecap="round"/><ellipse cx="202" cy="204" rx="8" ry="5" fill="#A28060" opacity="0.4" filter="url(#hb10)"/><path d="M187 219 Q200 225 213 219" stroke="#83684E" stroke-width="3" fill="none" stroke-linecap="round"/><path d="M148 194 Q144 236 200 242 Q256 236 252 194 Q228 224 200 224 Q172 224 148 194 Z" fill="#C6C6CB" opacity="0.8"/><path d="M187 212 Q200 209 213 212 Q200 217 187 212 Z" fill="#C6C6CB" opacity="0.8"/><path d="M142 180 Q142 118 170 114 Q186 106 200 110 Q214 106 230 114 Q258 118 258 180 Q252 134 200 132 Q148 134 142 180 Z" fill="url(#hr10)"/><path d="M170 116 Q198 110 230 116" stroke="#DFDFE3" stroke-width="3" fill="none" stroke-linecap="round" opacity="0.4"/><g fill="none" stroke="#2b2b33" stroke-width="3.2"><rect x="158" y="173" width="33" height="27" rx="9"/><rect x="209" y="173" width="33" height="27" rx="9"/><path d="M191 183 Q200 179 209 183"/><line x1="158" y1="178" x2="146" y2="173"/><line x1="242" y1="178" x2="254" y2="173"/></g><rect x="158" y="173" width="33" height="27" rx="9" fill="#cfe6ff" opacity="0.16"/><rect x="209" y="173" width="33" height="27" rx="9" fill="#cfe6ff" opacity="0.16"/><path d="M258 148 Q266 182 254 222" stroke="#DFB791" stroke-width="3" fill="none" stroke-linecap="round" opacity="0.5" filter="url(#hb10)"/></g><circle cx="200" cy="200" r="197" fill="none" stroke="#ffffff" stroke-width="6"/><circle cx="200" cy="200" r="200" fill="none" stroke="#9FA3A8" stroke-width="1.5"/></svg>